<svg width="170" height="34" viewBox="0 0 170 34" fill="none" xmlns="http://www.w3.org/2000/svg">
<g clip-path="url(#clip0_75:2846)">
<path d="M10.2176 14.2414L16.7994 7.65994L23.3846 14.2449L27.2143 10.4152L16.7994 0L6.38792 10.4117L10.2176 14.2414Z" fill="#B1B5C3"/>
<path d="M7.51311 16.9449L3.68347 13.1152L-0.146354 16.9451L3.68328 20.7747L7.51311 16.9449Z" fill="#B1B5C3"/>
<path d="M10.2176 19.6497L16.7994 26.2312L23.3843 19.6465L27.2161 23.474L27.2143 23.4762L16.7994 33.8911L6.38766 23.4797L6.38231 23.4743L10.2176 19.6497Z" fill="#B1B5C3"/>
<path d="M29.9156 20.7766L33.7454 16.9468L29.9158 13.1171L26.086 16.947L29.9156 20.7766Z" fill="#B1B5C3"/>
<path d="M20.6839 16.9433H20.6855L16.7994 13.0571L13.9274 15.9291H13.9271L13.5974 16.2591L12.9167 16.9398L12.9113 16.9452L12.9167 16.9508L16.7994 20.8335L20.6855 16.9473L20.6874 16.9452L20.6839 16.9433Z" fill="#B1B5C3"/>
<path d="M39.7157 8.21191H48.0452C50.1125 8.21191 51.6757 8.74246 52.7352 9.80354C53.5551 10.6253 53.9649 11.6438 53.9649 12.8588V12.9102C53.9649 13.4237 53.9015 13.8774 53.7738 14.2709C53.6464 14.6649 53.4761 15.0196 53.2633 15.3362C53.051 15.6532 52.8042 15.9313 52.5237 16.1706C52.2429 16.4104 51.9412 16.616 51.6182 16.7868C52.6573 17.1808 53.4753 17.7154 54.0717 18.3915C54.6678 19.068 54.9663 20.0051 54.9663 21.203V21.2541C54.9663 22.0759 54.8084 22.7946 54.4922 23.4111C54.1761 24.027 53.7232 24.5407 53.1335 24.9516C52.5438 25.3625 51.8347 25.6703 51.006 25.8759C50.1772 26.0812 49.2588 26.1837 48.251 26.1837H39.7157V8.21191ZM47.2124 15.4776C48.0856 15.4776 48.7789 15.3282 49.292 15.0284C49.8054 14.7289 50.0621 14.2452 50.0621 13.5778V13.5264C50.0621 12.9276 49.8394 12.4699 49.3945 12.153C48.9494 11.8363 48.3075 11.6778 47.4691 11.6778H43.5666V15.4776H47.2124ZM48.2652 22.7181C49.1381 22.7181 49.8223 22.5601 50.3191 22.2432C50.8154 21.9265 51.0638 21.4343 51.0638 20.7667V20.7155C51.0638 20.1165 50.8325 19.6416 50.3705 19.2904C49.9082 18.94 49.1638 18.7644 48.1367 18.7644H43.5666V22.7183H48.2652V22.7181Z" fill="#B1B5C3"/>
<path d="M59.927 8.21191H63.8811V26.1842H59.927V8.21191Z" fill="#B1B5C3"/>
<path d="M69.8699 8.21191H73.5152L81.9367 19.2778V8.21191H85.8392V26.1842H82.4761L73.7722 14.7591V26.1842H69.8699V8.21191Z" fill="#B1B5C3"/>
<path d="M97.8099 8.08398H101.455L109.158 26.1845H105.024L103.381 22.1538H95.7814L94.1384 26.1845H90.1068L97.8099 8.08398ZM101.969 18.6616L99.5811 12.8337L97.1939 18.6616H101.969Z" fill="#B1B5C3"/>
<path d="M113.426 8.21191H117.072L125.493 19.2778V8.21191H129.396V26.1842H126.033L117.329 14.7591V26.1842H113.426V8.21191Z" fill="#B1B5C3"/>
<path d="M143.626 26.4921C142.307 26.4921 141.084 26.2522 139.954 25.7734C138.824 25.2945 137.849 24.6395 137.027 23.8091C136.205 22.979 135.563 21.9991 135.102 20.8694C134.64 19.7396 134.408 18.5329 134.408 17.2491V17.1979C134.408 15.9141 134.64 14.712 135.102 13.5907C135.564 12.4696 136.205 11.4854 137.027 10.6382C137.848 9.79096 138.833 9.12309 139.979 8.63538C141.126 8.14767 142.393 7.90381 143.78 7.90381C144.618 7.90381 145.384 7.9726 146.077 8.10912C146.77 8.24644 147.399 8.43435 147.964 8.67392C148.529 8.91377 149.051 9.20474 149.531 9.54683C150.009 9.88946 150.455 10.2658 150.865 10.6767L148.35 13.5778C147.647 12.9448 146.933 12.448 146.206 12.0887C145.478 11.7295 144.661 11.5496 143.754 11.5496C143 11.5496 142.303 11.6952 141.662 11.9862C141.02 12.2772 140.467 12.6792 140.005 13.1926C139.543 13.7061 139.184 14.3011 138.927 14.977C138.671 15.6534 138.542 16.3764 138.542 17.1465V17.1977C138.542 17.9678 138.671 18.6956 138.927 19.3798C139.184 20.0648 139.538 20.6636 139.993 21.177C140.446 21.6904 140.994 22.0973 141.635 22.3968C142.278 22.6966 142.984 22.846 143.754 22.846C144.781 22.846 145.649 22.6578 146.359 22.2812C147.07 21.9051 147.776 21.3914 148.478 20.7407L150.994 23.2826C150.532 23.7791 150.052 24.2243 149.556 24.6175C149.06 25.0115 148.516 25.3493 147.926 25.632C147.335 25.9142 146.689 26.1286 145.988 26.2736C145.285 26.419 144.498 26.4921 143.626 26.4921Z" fill="#B1B5C3"/>
<path d="M155.647 8.21191H169.178V11.7295H159.55V15.3753H168.023V18.8926H159.55V22.6669H169.307V26.1842H155.647V8.21191Z" fill="#B1B5C3"/>
</g>
<defs>
<clipPath id="clip0_75:2846">
<rect width="169.178" height="33.8913" fill="white"/>
</clipPath>
</defs>
</svg>
