<svg width="100" height="100" viewBox="0 0 100 100" fill="none" xmlns="http://www.w3.org/2000/svg">
<path d="M43.4401 34.8108L42.9551 34.3226C42.5879 33.9559 41.9571 34.2156 41.9571 34.7356V41.7079C41.9571 42.0299 42.2213 42.2919 42.5441 42.2919H49.5181C50.0381 42.2919 50.2998 41.6621 49.9301 41.2959C49.7021 41.0679 49.7021 40.6987 49.9301 40.4712L57.3477 33.0308C57.5762 32.8041 57.5762 32.435 57.3477 32.206L56.6719 31.5327C56.3047 31.1659 56.5664 30.536 57.0849 30.536H64.0547C64.377 30.536 64.6407 30.7977 64.6407 31.12V38.0917C64.6407 38.6117 64.0087 38.872 63.6407 38.5047L63.1709 38.0351C62.9414 37.8007 62.5723 37.8007 62.3477 38.0351L49.8417 50.5351C49.6147 50.7626 49.2461 50.7626 49.0161 50.5351L33.7159 35.2348C33.4859 35.0048 33.4859 34.6351 33.7159 34.4066L54.8966 13.2268C55.1241 12.9988 55.1241 12.6268 54.8966 12.3998L49.9161 7.41976C49.6881 7.19276 49.3189 7.19276 49.0899 7.41976L21.6699 34.8408C21.4429 35.0688 21.4429 35.4408 21.6699 35.6678L49.0871 63.0848C49.3151 63.3114 49.6873 63.3114 49.9143 63.0848L77.3301 35.6678C77.5567 35.4398 77.5567 35.0698 77.3301 34.8426L61.2003 18.7126C60.9747 18.4856 60.6036 18.4856 60.3751 18.7126L44.2701 34.811C44.0401 35.041 43.6701 35.041 43.4401 34.811V34.8108Z" fill="#B1B5C3"/>
<path d="M64.673 81.5623C64.253 81.5623 63.8907 81.7127 63.587 82.0153C63.2872 82.3181 63.134 82.6756 63.134 83.0896C63.134 83.7206 63.4542 84.2116 64.09 84.5623C64.7873 84.7527 65.3478 84.6287 65.7697 84.1971C66.0754 83.8924 66.2247 83.5271 66.2247 83.1014C66.2247 82.6717 66.0754 82.3124 65.7697 82.0154C65.467 81.7157 65.1037 81.5664 64.672 81.5664V81.5624H64.673V81.5623ZM39.92 69.8533H38.772C38.276 69.8533 37.872 70.2527 37.872 70.7498V71.3904C36.652 70.1199 35.268 69.4841 33.7222 69.4841C31.939 69.4841 30.4502 70.1481 29.2622 71.4724C28.0718 72.7966 27.48 74.4529 27.48 76.4392C27.48 78.4597 28.0728 80.1502 29.2598 81.5017C30.46 82.8267 31.9732 83.4879 33.8062 83.4879C35.2559 83.4879 36.6119 82.8961 37.8732 81.7154V82.982C37.8732 83.5972 38.3732 84.0972 38.9869 84.0972H40.9469V70.8798C40.9467 70.3143 40.4867 69.8533 39.9199 69.8533H39.92ZM37.018 79.5809C36.318 80.3613 35.4038 80.7509 34.268 80.7509C33.206 80.7509 32.3252 80.3495 31.628 79.5409C30.9478 78.7449 30.608 77.7079 30.608 76.4374C30.608 75.2499 30.958 74.2499 31.655 73.4434C32.362 72.6444 33.2423 72.248 34.295 72.248C35.4112 72.248 36.317 72.6426 37.0152 73.4356C37.7149 74.2422 38.065 75.2656 38.065 76.5079C38.065 77.7509 37.715 78.7754 37.0152 79.5829H37.0182V79.5809H37.018ZM27.478 72.0907V70.7811C27.478 70.2674 27.064 69.8553 26.5522 69.8553H25.3418C24.832 69.8553 24.417 70.2655 24.417 70.7791V71.3494C23.31 70.1072 21.922 69.4842 20.253 69.4842C18.348 69.4842 16.813 70.2039 15.6528 71.6346C14.5728 72.9842 14.0332 74.6268 14.0332 76.5604C14.0332 78.5458 14.6147 80.204 15.7769 81.5272C16.9291 82.8368 18.4072 83.4862 20.2129 83.4862C21.7987 83.4862 23.2011 82.8672 24.4169 81.6239V83.4745C24.4169 86.2245 23.2969 87.5995 21.0569 87.5995C19.8407 87.5995 18.9169 87.1855 18.2821 86.3593C18.1201 86.1503 17.9857 85.8905 17.8788 85.5771C17.7288 85.1386 17.3118 84.8476 16.8508 84.8476H15.6908C15.1058 84.8476 14.6708 85.4042 14.8186 85.9706C15.136 87.1776 15.7488 88.1581 16.6609 88.9159C17.8041 89.8689 19.2611 90.3456 21.0287 90.3456C23.1239 90.3456 24.7709 89.6561 25.9691 88.2792C26.6039 87.5624 27.0287 86.705 27.2469 85.7069C27.3197 85.3475 27.3769 84.9247 27.4169 84.4471C27.4569 83.9725 27.4769 83.4217 27.4769 82.7948V80.8688C26.6199 79.6345 26.1889 78.1588 26.1889 76.4392C26.1889 74.7488 26.6189 73.3044 27.4769 72.0906H27.4779L27.478 72.0907ZM23.6 79.4764C22.92 80.327 21.996 80.7508 20.8242 80.7508C19.6538 80.7508 18.7378 80.3308 18.0742 79.4842C17.4678 78.7147 17.164 77.7244 17.164 76.5194C17.164 75.2928 17.4677 74.2948 18.0742 73.5254C18.7472 72.6649 19.6622 72.2344 20.8242 72.2344C21.9122 72.2344 22.8062 72.6288 23.5039 73.4169C24.1937 74.1875 24.5399 75.2169 24.5399 76.5069C24.5399 77.7129 24.2259 78.7011 23.5999 79.4746V79.4766L23.6 79.4764ZM52.9297 69.8631V69.8533H46.58V65.9646C46.58 65.4646 46.1758 65.0603 45.6748 65.0603H44.435C43.9302 65.0603 43.52 65.4705 43.52 65.9763V69.8533H42.212V72.7078H43.5182V84.0955H45.2642C45.9922 84.0955 46.5782 83.5095 46.5782 82.781V72.7098H49.7178C49.9658 72.2362 50.2661 71.7996 50.6231 71.4002C51.2736 70.6892 52.0431 70.1775 52.9279 69.8632H52.9299L52.9297 69.8631ZM68.5527 65.0603C68.0097 65.0603 67.5429 65.2566 67.1523 65.6483C66.7635 66.0378 66.5663 66.5017 66.5663 67.0359C66.5663 67.5995 66.7617 68.0721 67.1523 68.4657C67.5429 68.8553 68.0156 69.0497 68.5683 69.0497C69.122 69.0497 69.5888 68.8554 69.9667 68.4637C70.3573 68.0702 70.5546 67.6034 70.5546 67.0487C70.5546 66.4961 70.3592 66.0273 69.9676 65.6484C69.575 65.2548 69.1033 65.0586 68.5507 65.0586L68.5527 65.0604V65.0603ZM69.1728 71.3553H68.0624C67.493 71.3553 67.0292 71.8143 67.0292 72.3885V82.1073C67.2636 82.3827 67.3759 82.7079 67.3759 83.0829C67.3759 83.4579 67.2655 83.7861 67.0292 84.0625V84.6095H68.9999C69.6034 84.6095 70.0918 84.1192 70.0918 83.5155V72.2695C70.0918 71.7635 69.6797 71.3535 69.1717 71.3535L69.1727 71.3555L69.1728 71.3553ZM83.5623 73.2303C82.1833 71.8807 80.5047 71.2049 78.5271 71.2049C76.5583 71.2049 74.8884 71.8749 73.5193 73.2206C72.1503 74.5604 71.4646 76.1894 71.4646 78.1034C71.4646 80.1337 72.1347 81.8241 73.4783 83.1669C74.8221 84.5273 76.4881 85.2069 78.4723 85.2069C80.4763 85.2069 82.1677 84.5409 83.5476 83.2069C84.9138 81.8612 85.6013 80.2001 85.6013 78.2129C85.6013 76.2431 84.9217 74.5829 83.5623 73.2304V73.2303ZM81.3963 81.3143C80.6815 82.0868 79.7243 82.4686 78.5253 82.4686C77.3357 82.4686 76.3807 82.0809 75.6541 81.2986C74.9471 80.5292 74.5916 79.4784 74.5916 78.1561C74.5916 76.9237 74.9568 75.9159 75.6814 75.1366C76.408 74.3553 77.3552 73.9656 78.5271 73.9656C79.7136 73.9656 80.6716 74.3553 81.3961 75.1366C82.1131 75.9061 82.4724 76.9354 82.4724 78.2226C82.4724 79.5136 82.1111 80.5418 81.3962 81.3123V81.3163V81.3143H81.3963Z" fill="#B1B5C3"/>
<path d="M54.0703 80.7798C53.4393 80.1411 53.0869 79.27 53.0058 78.1802H61.7812C62.1816 78.1802 62.5117 77.8599 62.5175 77.4605C62.5175 75.2701 61.955 73.565 60.831 72.3305C59.6953 71.0875 58.1503 70.4663 56.203 70.4663C54.2734 70.4663 52.7207 71.1059 51.5508 72.3853C50.3892 73.684 49.8091 75.3783 49.8091 77.475C49.8091 79.5873 50.4093 81.2846 51.6036 82.563C52.4396 83.4525 53.464 84.0277 54.6798 84.2953C55.1896 84.4153 55.7178 84.4789 56.2521 84.4711C58.4318 84.5161 60.3283 84.5609 62.5081 84.6059L62.5119 84.2856C62.2453 83.9956 62.1115 83.6451 62.1115 83.2388C62.1115 82.8423 62.2511 82.5015 62.5235 82.2066L62.5255 81.8189C60.8068 81.7759 56.6389 81.7349 56.4729 81.7349C55.4963 81.7349 54.6936 81.4195 54.0706 80.7819V80.7799L54.0703 80.7798ZM53.6445 74.6588C53.8369 74.3578 54.0645 74.104 54.333 73.8911C54.6035 73.6743 54.8965 73.5141 55.2246 73.4009C55.5508 73.2876 55.9004 73.2309 56.2754 73.2309C57.9044 73.2309 58.9356 74.0455 59.3652 75.6783H53.21C53.3106 75.2973 53.455 74.9576 53.6446 74.6568V74.6588H53.6445Z" fill="#B1B5C3"/>
</svg>
