<svg width="71" height="72" viewBox="0 0 71 72" fill="none" xmlns="http://www.w3.org/2000/svg">
<g clip-path="url(#clip0_76:2873)">
<path fill-rule="evenodd" clip-rule="evenodd" d="M12.6941 11.1352C11.5806 5.34487 16.0346 0 21.8249 0C26.9471 0 31.1784 4.23136 31.1784 9.35353V20.9341C32.5146 20.9341 33.8509 20.7114 35.1871 20.7114C36.5233 20.7114 37.6368 20.7114 38.973 20.9341V9.35353C38.973 4.23136 43.2044 0 48.3266 0C54.1168 0 58.5709 5.34487 57.6801 11.1352L55.2304 24.72C63.9158 28.506 70.5969 35.1871 70.5969 43.4271V48.5493C70.5969 55.4531 66.1428 61.2433 59.6844 65.0293C53.226 69.038 44.7633 71.265 35.1871 71.265C25.6109 71.265 17.1481 69.038 10.6897 65.0293C4.45406 61.2433 0 55.4531 0 48.5493V43.4271C0 35.1871 6.45839 28.506 15.1438 24.72L12.6941 11.1352ZM51.8898 26.5017L54.785 10.467C55.4531 6.45839 52.5579 2.67244 48.3266 2.67244C44.7633 2.67244 41.8682 5.56758 41.8682 9.13083V23.8292C40.9774 23.6065 39.8638 23.6065 38.973 23.6065C37.6368 23.6065 36.5233 23.3838 35.1871 23.3838C33.8509 23.3838 32.5146 23.3838 31.1784 23.6065C30.2876 23.6065 29.1741 23.8292 28.2833 23.8292V9.35353C28.2833 5.79028 25.3882 2.89514 21.8249 2.89514C17.8162 2.89514 14.6984 6.68109 15.5892 10.6897L18.4844 26.7244C9.13083 30.2876 2.89514 36.5233 2.89514 43.6498V48.772C2.89514 59.6844 17.3708 68.5925 35.1871 68.5925C53.0033 68.5925 67.479 59.6844 67.479 48.772V43.6498C67.7017 36.3006 61.466 30.0649 51.8898 26.5017Z" fill="#B1B5C3"/>
<path fill-rule="evenodd" clip-rule="evenodd" d="M15.5892 10.6896C14.6984 6.68097 17.8162 2.89502 21.8249 2.89502C25.3881 2.89502 28.2833 5.79016 28.2833 9.35341V24.0518C30.5103 23.8291 32.7373 23.6064 35.1871 23.6064C37.4141 23.6064 39.6411 23.8291 41.8682 24.0518V9.35341C41.8682 5.79016 44.7633 2.89502 48.3266 2.89502C52.3352 2.89502 55.4531 6.68097 54.7849 10.6896L51.8898 26.7242C61.2433 30.2875 67.7017 36.5232 67.7017 43.6497C67.7017 54.5621 53.226 63.4703 35.4098 63.4703C17.5935 63.4703 3.11783 54.5621 3.11783 43.6497C3.11783 36.5232 9.35351 30.2875 18.707 26.7242L15.5892 10.6896Z" fill="#B1B5C3"/>
<path d="M26.279 42.091C26.279 44.9861 24.72 47.4358 22.7157 47.4358C20.7114 47.4358 19.1525 44.9861 19.1525 42.091C19.1525 39.1958 20.7114 36.7461 22.7157 36.7461C24.72 36.7461 26.279 39.1958 26.279 42.091Z" fill="#777E90"/>
<path d="M50.999 42.091C50.999 44.9861 49.4401 47.4358 47.4357 47.4358C45.4314 47.4358 43.8725 44.9861 43.8725 42.091C43.8725 39.1958 45.4314 36.7461 47.4357 36.7461C49.4401 36.7461 50.999 39.1958 50.999 42.091Z" fill="#777E90"/>
</g>
<defs>
<clipPath id="clip0_76:2873">
<rect width="70.5969" height="71.265" fill="white"/>
</clipPath>
</defs>
</svg>
