<svg width="87" height="100" viewBox="0 0 87 100" fill="none" xmlns="http://www.w3.org/2000/svg">
<g clip-path="url(#clip0_76:2863)">
<path d="M33.9876 22.7098C32.9062 22.5553 32.8547 22.5038 33.3696 22.4523C34.3481 22.2978 36.6139 22.5038 38.2103 22.8643C41.918 23.7397 45.2653 26.0055 48.8186 29.9708L49.7455 31.0522L51.0844 30.8462C56.8005 29.9193 62.6711 30.6402 67.5632 32.9061C68.9022 33.524 71.0135 34.7599 71.271 35.0689C71.374 35.1719 71.5285 35.8413 71.6315 36.5108C71.9919 38.9311 71.8374 40.7335 71.065 42.1239C70.653 42.8964 70.653 43.1023 70.9105 43.7718C71.1165 44.2868 71.7345 44.6472 72.3009 44.6472C73.5368 44.6472 74.8242 42.6904 75.4422 39.9611L75.6997 38.8796L76.1631 39.3946C78.7895 42.3299 80.8493 46.3981 81.1583 49.2819L81.2613 50.0543L80.7978 49.3849C80.0254 48.2005 79.3044 47.428 78.326 46.7586C76.5751 45.5742 74.7212 45.2137 69.8291 44.9562C65.4004 44.6987 62.8771 44.3383 60.4053 43.5143C56.1825 42.1239 54.0197 40.3215 49.0245 33.6785C46.8102 30.7432 45.4198 29.1468 44.0294 27.8079C40.9911 24.8726 37.9528 23.3277 33.9876 22.7098Z" fill="#B1B5C3"/>
<path d="M72.3524 29.2499C72.4554 27.2931 72.7129 26.0057 73.2793 24.8212C73.4853 24.3578 73.6913 23.9458 73.7428 23.9458C73.7943 23.9458 73.6913 24.3063 73.5368 24.7182C73.1249 25.8512 73.0734 27.4476 73.3308 29.2499C73.6913 31.5673 73.8458 31.8762 76.3176 34.3996C77.4506 35.584 78.7895 37.0774 79.3044 37.6953L80.1799 38.8283L79.3044 38.0043C78.223 36.9744 75.7512 35.0175 75.1847 34.76C74.8242 34.5541 74.7727 34.5541 74.5153 34.8115C74.3093 35.0175 74.2578 35.3265 74.2578 36.8199C74.2063 39.1372 73.8973 40.5791 73.1249 42.0725C72.7129 42.845 72.6614 42.6905 73.0219 41.815C73.2793 41.1456 73.3308 40.8366 73.3308 38.6223C73.3308 34.1421 72.8159 33.0607 69.6746 31.2583C68.9022 30.7948 67.5632 30.1254 66.7908 29.7649C65.9669 29.4044 65.3489 29.0954 65.4004 29.0954C65.5034 28.9924 68.5417 29.8679 69.7261 30.3828C71.5285 31.1038 71.8374 31.1553 72.0434 31.1038C72.1979 30.9493 72.3009 30.5373 72.3524 29.2499Z" fill="#B1B5C3"/>
<path d="M36.099 36.9232C33.9361 33.9364 32.5457 29.3017 32.8547 25.8514L32.9577 24.77L33.4726 24.873C34.3996 25.0275 35.996 25.6455 36.7684 26.1089C38.8283 27.3448 39.7552 29.0442 40.6306 33.2669C40.8881 34.5028 41.2486 35.9447 41.4031 36.4082C41.6606 37.1806 42.639 38.983 43.4629 40.1159C44.0294 40.9399 43.6689 41.3519 42.3815 41.2489C40.4247 41.0429 37.7983 39.2405 36.099 36.9232Z" fill="#B1B5C3"/>
<path d="M69.7261 59.3237C59.5298 55.204 55.9251 51.6508 55.9251 45.6257C55.9251 44.7502 55.9766 44.0293 55.9766 44.0293C56.0281 44.0293 56.3885 44.3383 56.852 44.6988C58.9119 46.3466 61.2292 47.0676 67.6662 47.9945C71.4255 48.561 73.5883 48.973 75.5452 49.6424C81.7762 51.7023 85.6385 55.925 86.5654 61.6411C86.8229 63.2889 86.6684 66.4302 86.2564 68.0781C85.896 69.3655 84.866 71.7344 84.6086 71.7858C84.5571 71.7858 84.4541 71.5284 84.4541 71.1164C84.3511 68.9536 83.2696 66.8937 81.4673 65.2973C79.3044 63.4434 76.5236 62.053 69.7261 59.3237Z" fill="#B1B5C3"/>
<path d="M62.5166 61.0232C62.4136 60.2507 62.1561 59.2723 62.0017 58.8603L61.7442 58.0879L62.2076 58.6544C62.8771 59.4268 63.3921 60.3537 63.8555 61.6411C64.216 62.6196 64.216 62.9286 64.216 64.5249C64.216 66.0698 64.1645 66.4303 63.8555 67.3057C63.3406 68.6961 62.7226 69.6746 61.6927 70.756C59.8388 72.6614 57.4185 73.6913 53.9682 74.1548C53.3503 74.2063 51.5994 74.3608 50.0545 74.4637C46.1923 74.6697 43.6174 75.0817 41.3001 75.9056C40.9911 76.0086 40.6822 76.1116 40.6307 76.0601C40.5277 75.9571 42.1241 75.0302 43.4115 74.4122C45.2138 73.5368 47.0677 73.0733 51.1359 72.3524C53.1443 72.0434 55.2041 71.6314 55.7191 71.4255C60.8172 69.8291 63.3406 65.8638 62.5166 61.0232Z" fill="#B1B5C3"/>
<path d="M67.2028 69.3139C65.8639 66.3786 65.5549 63.5978 66.2758 60.9715C66.3788 60.714 66.4818 60.4565 66.5848 60.4565C66.6878 60.4565 66.9968 60.611 67.3058 60.817C67.9237 61.229 69.2111 61.9499 72.5069 63.7523C76.6781 66.0182 79.0469 67.769 80.6948 69.7774C82.1367 71.5283 83.0122 73.5366 83.4241 76.0085C83.6816 77.3989 83.5271 80.7461 83.1667 82.1365C82.0337 86.5137 79.4589 90.0155 75.6997 92.0238C75.1332 92.3328 74.6697 92.5388 74.6183 92.5388C74.5668 92.5388 74.7727 92.0238 75.0817 91.4059C76.3176 88.7796 76.4721 86.2562 75.5452 83.4239C74.9787 81.6731 73.7943 79.5617 71.4255 76.0085C68.5932 71.8887 67.9237 70.8073 67.2028 69.3139Z" fill="#B1B5C3"/>
<path d="M28.838 85.072C32.6487 81.8792 37.3349 79.6134 41.6606 78.8924C43.5144 78.5835 46.6042 78.6865 48.3036 79.1499C51.0329 79.8709 53.5047 81.4158 54.7921 83.3211C56.028 85.175 56.5945 86.7714 57.161 90.3246C57.367 91.715 57.6244 93.1569 57.6759 93.4659C58.0879 95.3198 58.9118 96.7617 59.9418 97.5341C61.5382 98.7185 64.319 98.77 67.0483 97.7401C67.5117 97.5856 67.9237 97.4311 67.9237 97.4826C68.0267 97.5856 66.6363 98.5126 65.7094 98.976C64.422 99.6455 63.392 99.8515 62.0016 99.8515C59.5298 99.8515 57.4185 98.5641 55.7191 95.9892C55.3586 95.4743 54.6376 93.9809 54.0197 92.5905C52.2173 88.4193 51.2904 87.1834 49.179 85.793C47.3252 84.6085 44.9563 84.3511 43.154 85.2265C40.7851 86.3594 40.1672 89.3977 41.815 91.2516C42.4845 92.024 43.7204 92.642 44.7503 92.7965C46.6557 93.0539 48.3036 91.5606 48.3036 89.6552C48.3036 88.4193 47.8401 87.6983 46.6042 87.1319C44.9563 86.4109 43.154 87.2349 43.2054 88.8312C43.2054 89.5007 43.5144 89.9127 44.1839 90.2216C44.5959 90.4276 44.5958 90.4276 44.2869 90.3761C42.7935 90.0672 42.433 88.2133 43.6174 87.0289C45.0593 85.587 48.0976 86.2049 49.1275 88.2133C49.5395 89.0372 49.591 90.6851 49.2305 91.715C48.3551 93.9809 45.8833 95.1653 43.3599 94.4958C41.6606 94.0324 40.9396 93.5689 38.8798 91.4576C35.275 87.7498 33.8846 87.0289 28.735 86.2564L27.7565 86.1019L28.838 85.072Z" fill="#B1B5C3"/>
<path fill-rule="evenodd" clip-rule="evenodd" d="M1.7498 2.21434C13.7485 16.7878 32.2357 39.4462 33.1626 40.6821C33.935 41.7121 33.6261 42.6905 32.3386 43.4115C31.6177 43.8234 30.1243 44.2354 29.4034 44.2354C28.5794 44.2354 27.601 43.8234 26.9315 43.154C26.4681 42.6905 24.4597 39.7552 19.928 32.7002C16.4778 27.2931 13.5425 22.8129 13.491 22.7614C13.285 22.6584 13.285 22.6584 19.5675 33.8846C23.5328 40.9396 24.8202 43.463 24.8202 43.7719C24.8202 44.4414 24.6142 44.8019 23.7902 45.7288C22.3998 47.2737 21.7819 49.0246 21.3184 52.6808C20.8035 56.749 19.4131 59.6328 15.4478 64.525C13.1305 67.4088 12.77 67.9237 12.2036 69.1081C11.4826 70.55 11.2766 71.374 11.1736 73.2279C11.0706 75.1847 11.2766 76.4206 11.8431 78.2745C12.3581 79.9224 12.9245 81.0038 14.3149 83.1152C15.4993 84.969 16.2203 86.3594 16.2203 86.8744C16.2203 87.2864 16.3233 87.2864 18.1771 86.8744C22.6058 85.8445 26.2621 84.0936 28.2704 81.9308C29.5063 80.5919 29.8153 79.8709 29.8153 78.017C29.8153 76.8326 29.7638 76.5751 29.4549 75.8542C28.9399 74.7213 27.9615 73.7943 25.8501 72.3524C23.0693 70.4471 21.8849 68.9022 21.5759 66.8423C21.3184 65.0914 21.6274 63.907 23.1723 60.6627C24.7687 57.3155 25.1807 55.9251 25.4381 52.5263C25.5926 50.3635 25.8501 49.488 26.4681 48.8186C27.1375 48.0976 27.704 47.8401 29.3004 47.6342C31.9267 47.2737 33.6261 46.6042 34.965 45.3168C36.1494 44.2354 36.6643 43.154 36.7158 41.5576L36.7673 40.3732L36.0979 39.6522C33.6776 36.8714 0.153408 0 -0.00108161 0C-0.052578 0 0.771364 0.978431 1.7498 2.21434ZM17.5592 75.4422C18.1256 74.4638 17.8167 73.2279 16.8897 72.6099C16.0143 72.0434 14.6754 72.3009 14.6754 73.0734C14.6754 73.2794 14.7784 73.4853 15.0874 73.5883C15.5508 73.8458 15.6023 74.1033 15.2418 74.6698C14.8814 75.2362 14.8814 75.7512 15.3448 76.1117C16.0658 76.6781 17.0442 76.3691 17.5592 75.4422Z" fill="#B1B5C3"/>
<path fill-rule="evenodd" clip-rule="evenodd" d="M38.4163 48.3554C37.1804 48.7158 35.9959 50.0548 35.6355 51.3937C35.4295 52.2176 35.5325 53.711 35.893 54.1745C36.4594 54.8954 36.9744 55.1014 38.4163 55.1014C41.2486 55.1014 43.6689 53.8655 43.9264 52.3721C44.1839 51.1362 43.1025 49.4368 41.6091 48.6643C40.8366 48.2524 39.2402 48.0979 38.4163 48.3554ZM41.712 50.9302C42.124 50.3122 41.9695 49.6428 41.1971 49.1793C39.8067 48.3039 37.6953 49.0248 37.6953 50.3637C37.6953 51.0332 38.7768 51.7541 39.8067 51.7541C40.4761 51.7541 41.4031 51.3422 41.712 50.9302Z" fill="#B1B5C3"/>
</g>
<defs>
<clipPath id="clip0_76:2863">
<rect width="86.6684" height="99.8" fill="white"/>
</clipPath>
</defs>
</svg>
