<svg width="25" height="19" viewBox="0 0 25 19" fill="none" xmlns="http://www.w3.org/2000/svg">
<path d="M10.2463 13.6978C12.678 11.023 18.2238 6.48386 22.4046 5.43014C24.35 4.45748 25.3226 3.48482 24.5931 1.05319H22.6478C20.897 6.5001 16.5687 2.99852 17.2982 0.0805303C7.96059 -0.490184 5.46409 2.11228 5.38304 3.48485C9.27369 1.53952 11.3811 2.02586 11.9485 2.51219C7.47426 4.06845 4.08615 7.05128 2.95138 8.34816C6.25843 6.40284 9.35473 6.40284 10.4895 6.646C-0.696102 12.2388 -0.0476735 13.6978 0.0333817 15.1568C0.616979 13.6005 2.54609 13.0494 3.4377 12.9683C3.4377 16.859 6.59886 18.5611 6.59886 18.5611C6.59886 18.5611 7.81469 16.3726 10.2463 13.6978Z" fill="white"/>
</svg>
