<svg width="61" height="41" viewBox="0 0 61 41" fill="none" xmlns="http://www.w3.org/2000/svg">
<path d="M20.0656 18.234C16.3391 24.827 9.66677 31.5779 0 33.9998C11.3962 34.2402 35.7625 35.8954 42.0579 40.5928C38.8474 36.2357 35.5605 34.7642 34.3183 34.573C36.0382 32.7576 40.682 28.7254 45.4977 27.1201C50.3134 25.5149 55.1483 29.5089 56.9637 31.7065C58.397 30.4644 61.2061 27.0628 60.9768 23.3937C60.7475 19.7245 54.1928 15.1764 50.9441 13.361C47.5042 8.4879 34.3183 -2.36151 34.3183 0.461671C34.3183 1.03491 37.2804 4.47477 37.4715 5.90802C33.4584 1.60826 19.6991 5.62138 22.5656 5.33473C24.8588 5.10541 27.1521 6.95908 28.012 7.91459C24.2855 6.76799 15.1127 12.7877 15.3994 12.7877C15.6287 12.7877 17.7881 13.5521 18.8392 13.9343C15.3994 14.6222 12.0551 18.3456 11.0996 20.6388C14.2528 19.2056 17.8362 17.546 20.0656 18.234Z" fill="url(#paint0_linear_179:553)"/>
<defs>
<linearGradient id="paint0_linear_179:553" x1="30.495" y1="0" x2="30.495" y2="40.5928" gradientUnits="userSpaceOnUse">
<stop stop-color="#5F66E6"/>
<stop offset="1" stop-color="#1DCDF1"/>
</linearGradient>
</defs>
</svg>
