<svg width="32" height="32" viewBox="0 0 32 32" fill="none" xmlns="http://www.w3.org/2000/svg">
<path d="M29.7742 19.2231V12.7816C30.8177 12.557 31.6023 11.6276 31.6023 10.518C31.6023 8.68485 29.5686 7.59035 28.0428 8.56638L23.4383 3.96189C24.4146 2.43558 23.3193 0.402344 21.4867 0.402344C19.2287 0.402344 18.3023 3.32923 20.1727 4.62324L18.1097 9.6203L14.5982 6.10871L18.2456 4.59289C18.4942 4.48954 18.612 4.20423 18.5086 3.95561C18.4053 3.70698 18.12 3.58919 17.8714 3.69254L13.8522 5.36284L12.4625 3.97298C13.4489 2.4499 12.359 0.402344 10.518 0.402344C8.68485 0.402344 7.59035 2.43613 8.56638 3.96189L3.96195 8.56638C2.43558 7.59004 0.402344 8.6854 0.402344 10.518C0.402344 11.9611 1.71341 13.056 3.13637 12.795L4.46925 16.0023L3.1363 19.2097C1.71579 18.9492 0.402344 20.0414 0.402344 21.4867C0.402344 23.3198 2.43613 24.4143 3.96189 23.4383L8.56638 28.0427C7.58998 29.569 8.6854 31.6023 10.518 31.6023C11.6276 31.6023 12.5569 30.8177 12.7815 29.7742H19.2231C19.4477 30.8177 20.3771 31.6023 21.4867 31.6023C22.7635 31.6023 23.8023 30.5635 23.8023 29.2867C23.8023 28.0099 22.7635 26.9711 21.4867 26.9711C20.377 26.9711 19.4477 27.7557 19.2231 28.7992H12.9614L27.3847 22.8052C28.6878 24.6794 31.6023 23.7267 31.6023 21.4867C31.6023 20.3771 30.8177 19.4478 29.7742 19.2231ZM27.0088 10.931L25.6594 11.4881L22.8675 4.76998L27.3494 9.25181C27.0339 9.73297 26.8993 10.3266 27.0088 10.931ZM27.3815 11.832C27.7111 12.3084 28.2144 12.6557 28.7992 12.7816V19.0434L26.0336 12.3885L27.3815 11.832ZM27.893 19.4036L22.3844 13.8949L25.1323 12.7605L27.893 19.4036ZM30.6273 10.518C30.6273 11.2572 30.026 11.8586 29.2867 11.8586C28.5475 11.8586 27.9461 11.2572 27.9461 10.518C27.9461 9.77874 28.5475 9.17734 29.2867 9.17734C30.026 9.17734 30.6273 9.77874 30.6273 10.518ZM21.4867 1.37734C22.226 1.37734 22.8273 1.97874 22.8273 2.71797C22.8273 3.4572 22.226 4.05859 21.4867 4.05859C20.7475 4.05859 20.1461 3.4572 20.1461 2.71797C20.1461 1.97874 20.7475 1.37734 21.4867 1.37734ZM21.0737 4.99593C21.3504 5.04603 21.6241 5.04651 21.9051 4.99496L24.7581 11.8601L21.6378 13.1483L18.8563 10.3668L21.0737 4.99593ZM20.6618 13.5513L16.9006 15.1041L18.4534 11.3429L20.6618 13.5513ZM10.0996 4.99502C10.6898 5.10318 11.2826 4.98003 11.773 4.66248L12.8781 5.76765L9.13146 7.32472L10.0996 4.99502ZM7.85512 7.85512L4.77004 9.13725L9.13725 4.76998L7.85512 7.85512ZM10.518 1.37734C11.2572 1.37734 11.8586 1.97874 11.8586 2.71797C11.8586 3.4572 11.2572 4.05859 10.518 4.05859C9.77874 4.05859 9.17734 3.4572 9.17734 2.71797C9.17734 1.97874 9.77874 1.37734 10.518 1.37734ZM1.37734 10.518C1.37734 9.77874 1.97874 9.17734 2.71797 9.17734C3.4572 9.17734 4.05859 9.77874 4.05859 10.518C4.05859 11.2572 3.4572 11.8586 2.71797 11.8586C1.97874 11.8586 1.37734 11.2572 1.37734 10.518ZM4.03641 12.42C4.77778 11.9045 5.16138 11.0068 4.99502 10.0996L7.32472 9.1314L4.99721 14.732L4.03641 12.42ZM4.99721 17.2727L5.97118 19.6162L4.62324 20.1727C4.4645 19.9433 4.26548 19.7439 4.03641 19.5847L4.99721 17.2727ZM4.99593 21.0736L6.34527 20.5166L9.13725 27.2347L4.65529 22.7529C4.97016 22.2727 5.10556 21.6793 4.99593 21.0736ZM1.37734 21.4867C1.37734 20.7475 1.97874 20.1461 2.71797 20.1461C3.4572 20.1461 4.05859 20.7475 4.05859 21.4867C4.05859 22.226 3.4572 22.8273 2.71797 22.8273C1.97874 22.8273 1.37734 22.226 1.37734 21.4867ZM10.518 30.6273C9.77874 30.6273 9.17734 30.026 9.17734 29.2867C9.17734 28.5475 9.77874 27.9461 10.518 27.9461C11.2572 27.9461 11.8586 28.5475 11.8586 29.2867C11.8586 30.026 11.2572 30.6273 10.518 30.6273ZM21.4867 27.9461C22.226 27.9461 22.8273 28.5475 22.8273 29.2867C22.8273 30.026 22.226 30.6273 21.4867 30.6273C20.7475 30.6273 20.1461 30.026 20.1461 29.2867C20.1461 28.5475 20.7475 27.9461 21.4867 27.9461ZM12.4201 27.9683C11.9056 27.2283 11.0087 26.8431 10.0996 27.0097L7.24654 20.1445L9.14639 19.3602C9.39526 19.2574 9.51372 18.9724 9.41098 18.7236C9.30824 18.4746 9.02317 18.3563 8.77436 18.459L6.87244 19.2442L5.52512 16.0023L8.601 8.601L13.624 6.51352L17.7068 10.5963L15.629 15.629L12.3145 16.9974C12.0657 17.1001 11.9472 17.3851 12.0499 17.634C12.1532 17.8842 12.4389 18.0009 12.6866 17.8986L15.104 16.9006L11.6262 25.3246C11.4934 25.6461 11.7312 25.9983 12.0766 25.9983C12.2682 25.9983 12.4498 25.8847 12.5274 25.6967L16.3755 16.3756L21.4083 14.2979L27.3421 20.2316C27.0249 20.7214 26.9012 21.3142 27.0095 21.9051L12.4201 27.9683ZM29.2867 22.8273C28.5475 22.8273 27.9461 22.226 27.9461 21.4867C27.9461 20.7475 28.5475 20.1461 29.2867 20.1461C30.026 20.1461 30.6273 20.7475 30.6273 21.4867C30.6273 22.226 30.026 22.8273 29.2867 22.8273Z" fill="white"/>
</svg>
