<svg width="32" height="32" viewBox="0 0 32 32" fill="none" xmlns="http://www.w3.org/2000/svg">
<path d="M16.0151 4.59717C15.624 4.59717 15.2303 4.62038 14.8449 4.66615C14.5943 4.69582 14.4152 4.92318 14.445 5.17382C14.4748 5.42445 14.7025 5.60416 14.9526 5.57375C15.3025 5.53225 15.6599 5.51123 16.0151 5.51123C20.9363 5.51123 24.9399 9.51951 24.9399 14.4464C24.9399 19.3733 20.9363 23.3816 16.0151 23.3816C14.1753 23.3816 12.4088 22.8257 10.9068 21.7741C9.43789 20.7457 8.3228 19.3206 7.6821 17.6529C7.59161 17.4173 7.32738 17.2995 7.09162 17.3901C6.85597 17.4806 6.73836 17.745 6.82885 17.9806C7.53506 19.8189 8.76386 21.3896 10.3825 22.5228C12.039 23.6826 13.9867 24.2956 16.0151 24.2956C21.4402 24.2956 25.8539 19.8772 25.8539 14.4464C25.8539 9.01544 21.4402 4.59717 16.0151 4.59717Z" fill="white"/>
<path d="M7.1843 15.7464C7.12208 15.3189 7.09045 14.8812 7.09045 14.4456C7.09045 12.6064 7.64407 10.8401 8.69146 9.33783C9.71558 7.86893 11.1352 6.75232 12.7969 6.10894C13.0323 6.01778 13.1492 5.75306 13.0581 5.51772C12.9669 5.28238 12.7023 5.16538 12.4669 5.25655C10.6349 5.96592 9.07019 7.19643 7.94163 8.81505C6.7868 10.4716 6.17633 12.4186 6.17633 14.4456C6.17633 14.9252 6.21107 15.4071 6.27968 15.8782C6.31283 16.1056 6.50814 16.2694 6.73135 16.2694C6.75329 16.2694 6.77553 16.2678 6.79783 16.2646C7.04768 16.2283 7.22068 15.9962 7.1843 15.7464Z" fill="white"/>
<path d="M22.7254 17.8464C22.9572 17.9465 23.2261 17.8399 23.3263 17.6082C23.7586 16.608 23.9778 15.544 23.9778 14.4456C23.9778 10.0503 20.4057 6.47461 16.0151 6.47461C11.6245 6.47461 8.05252 10.0503 8.05252 14.4456C8.05252 18.8408 11.6246 22.4166 16.0152 22.4166C18.4004 22.4166 20.6399 21.3593 22.1595 19.5158C22.3201 19.3211 22.2923 19.033 22.0975 18.8724C21.9028 18.7118 21.6147 18.7396 21.4541 18.9344C20.1088 20.5664 18.1264 21.5025 16.0151 21.5025C12.1285 21.5025 8.96652 18.3368 8.96652 14.4456C8.96652 10.5543 12.1285 7.38867 16.0151 7.38867C19.9017 7.38867 23.0637 10.5543 23.0637 14.4456C23.0637 15.4185 22.8697 16.3605 22.4872 17.2455C22.387 17.4772 22.4937 17.7462 22.7254 17.8464Z" fill="white"/>
<path d="M31.4679 24.5844L27.1193 20.2309C28.025 18.4994 28.5375 16.5312 28.5375 14.4456C28.5375 7.54079 22.92 1.92334 16.0152 1.92334C9.11048 1.92334 3.49297 7.54079 3.49297 14.4456C3.49297 16.524 4.00198 18.4859 4.9019 20.2129L0.535313 24.5844C0.421299 24.6986 0.375901 24.8645 0.415937 25.0209C0.456034 25.1772 0.575593 25.3009 0.730556 25.3461L4.13634 26.3408L5.13005 29.7506C5.1752 29.9057 5.29891 30.0254 5.45545 30.0655C5.49299 30.0751 5.53102 30.0797 5.5688 30.0797C5.68854 30.0797 5.80536 30.0326 5.89219 29.9457L10.2653 25.5679C11.9881 26.4622 13.9438 26.9679 16.0153 26.9679C18.0797 26.9679 20.0289 26.4657 21.7474 25.5772L26.1112 29.9457C26.198 30.0326 26.3148 30.0797 26.4346 30.0797C26.4723 30.0797 26.5104 30.0751 26.5479 30.0655C26.7044 30.0254 26.8282 29.9057 26.8733 29.7506L27.867 26.3408L31.2728 25.3461C31.4278 25.3009 31.5473 25.1773 31.5874 25.0209C31.6273 24.8645 31.5819 24.6986 31.4679 24.5844ZM1.72688 24.6849L5.37142 21.0364C5.80225 21.7296 6.29883 22.3778 6.85238 22.9723L4.3729 25.4576L1.72688 24.6849ZM5.7914 28.7532L5.01933 26.1039L7.49911 23.6182C8.09544 24.1722 8.74565 24.6689 9.44094 25.0996L5.7914 28.7532ZM4.40703 14.4456C4.40703 8.04481 9.61443 2.8374 16.0152 2.8374C22.416 2.8374 27.6234 8.04481 27.6234 14.4456C27.6234 20.8464 22.416 26.0538 16.0152 26.0538C9.61443 26.0538 4.40703 20.8464 4.40703 14.4456ZM26.2118 28.7532L22.5728 25.11C23.2689 24.6804 23.92 24.1845 24.5172 23.6313L26.9839 26.1039L26.2118 28.7532ZM27.6303 25.4576L25.1649 22.9863C25.7193 22.3928 26.2168 21.7455 26.6486 21.0531L30.2763 24.6848L27.6303 25.4576Z" fill="white"/>
<path d="M20.546 13.2386C20.4923 13.0731 20.3493 12.9525 20.1771 12.9275L17.5868 12.5513L16.4264 10.1658C16.3499 10.0085 16.1904 9.90869 16.0155 9.90869C15.8406 9.90869 15.681 10.0085 15.6045 10.1658L14.4441 12.5513L11.8539 12.9275C11.6817 12.9525 11.5386 13.0731 11.4849 13.2385C11.4311 13.404 11.476 13.5857 11.6006 13.7071L13.477 15.5351L13.0343 18.1161C13.0049 18.2875 13.0754 18.4608 13.2161 18.5631C13.3568 18.6653 13.5434 18.6788 13.6974 18.5979L16.0153 17.3792L18.3333 18.5979C18.4002 18.633 18.4732 18.6503 18.5459 18.6503C18.6407 18.6503 18.735 18.6209 18.8146 18.563C18.9553 18.4607 19.0258 18.2875 18.9963 18.116L18.5537 15.535L20.4301 13.707C20.5549 13.5857 20.5998 13.404 20.546 13.2386ZM17.7439 15.0481C17.6361 15.1531 17.5869 15.3044 17.6124 15.4527L17.9391 17.3579L16.2281 16.4583C16.1615 16.4234 16.0885 16.4059 16.0155 16.4059C15.9424 16.4059 15.8694 16.4234 15.8028 16.4583L14.0918 17.3579L14.4185 15.4528C14.444 15.3044 14.3948 15.1531 14.287 15.0481L12.902 13.6988L14.815 13.421C14.9648 13.3993 15.0941 13.3048 15.1603 13.1686L16.0155 11.4104L16.8707 13.1686C16.9368 13.3047 17.0661 13.3992 17.2159 13.421L19.1288 13.6988L17.7439 15.0481Z" fill="white"/>
</svg>
