<svg width="32" height="32" viewBox="0 0 32 32" fill="none" xmlns="http://www.w3.org/2000/svg">
<path d="M16.3405 26.5027C16.3468 26.4955 16.353 26.4884 16.359 26.481L27.0305 13.4298C27.1653 13.2665 27.166 13.0286 27.0408 12.8639L25.9565 11.3792C25.8076 11.1753 25.5216 11.1306 25.3176 11.2796C25.1137 11.4286 25.0691 11.7146 25.2181 11.9185L25.7765 12.6832H20.4605L23.1185 9.04356L23.7939 9.96826C23.9428 10.1721 24.2288 10.2168 24.4328 10.0678C24.6367 9.91888 24.6813 9.63284 24.5323 9.42891L23.4878 7.99857C23.4033 7.88255 23.2617 7.81018 23.1165 7.81104H8.88593C8.74626 7.81104 8.59745 7.8867 8.51496 8.001L4.96354 12.864C4.83845 13.0285 4.83912 13.2666 4.97385 13.4299L10.4013 20.0676C10.6069 20.2672 10.8214 20.2887 11.0447 20.1321C11.2402 19.9723 11.2691 19.6842 11.1092 19.4887L6.29232 13.5977H12.0948L14.996 24.2422L12.6991 21.433C12.5392 21.2376 12.2512 21.2087 12.0557 21.3684C11.8601 21.5283 11.8312 21.8164 11.9911 22.0119L15.6456 26.4812C15.8198 26.6976 16.1537 26.7083 16.3405 26.5027ZM16.0022 24.4563L13.0425 13.5977H18.9618L16.0022 24.4563ZM13.3441 12.6832L16.0022 9.04356L18.6602 12.6832H13.3441ZM12.4441 12.3652L9.78601 8.7255H15.1021L12.4441 12.3652ZM25.712 13.5977L17.0083 24.2422L19.9096 13.5977H25.712ZM19.5603 12.3652L16.9023 8.7255H22.2183L19.5603 12.3652ZM6.22789 12.6832L8.88593 9.04356L11.544 12.6832H6.22789Z" fill="white"/>
<path d="M25.8086 6.69532C25.9256 6.69532 26.0427 6.65063 26.132 6.56126L27.4378 5.25436C27.8556 4.83615 27.2087 4.1898 26.7909 4.60802L25.4852 5.91491C25.2139 6.18645 25.4249 6.69532 25.8086 6.69532Z" fill="white"/>
<path d="M29.4878 12.8776C29.527 12.8776 29.5669 12.8726 29.6066 12.8619L31.2653 12.4171C31.8363 12.2639 31.5996 11.3809 31.0284 11.5338L29.3697 11.9787C28.8582 12.1159 28.977 12.8776 29.4878 12.8776Z" fill="white"/>
<path d="M27.2324 18.5784L26.4272 18.3624C25.8561 18.2095 25.6193 19.0925 26.1903 19.2457L26.9955 19.4616C27.5466 19.6092 27.7973 18.7299 27.2324 18.5784Z" fill="white"/>
<path d="M31.2379 19.6528L28.8806 19.0206C28.3095 18.8678 28.0727 19.7507 28.6437 19.9039L31.001 20.5361C31.552 20.6837 31.8027 19.8044 31.2379 19.6528Z" fill="white"/>
<path d="M23.2882 22.7101C22.8703 22.2918 22.2234 22.9382 22.6413 23.3564L24.7624 25.4795C25.1802 25.8978 25.8271 25.2514 25.4093 24.8332L23.2882 22.7101Z" fill="white"/>
<path d="M26.7279 26.1515C26.3101 25.7333 25.6632 26.3796 26.081 26.7978L26.7167 27.4341C27.1346 27.8524 27.7815 27.206 27.3636 26.7878L26.7279 26.1515Z" fill="white"/>
<path d="M19.6271 27.9805L19.472 27.4012C19.3191 26.8301 18.4358 27.0666 18.5886 27.6377L18.7437 28.217C18.894 28.7781 19.7804 28.5535 19.6271 27.9805Z" fill="white"/>
<path d="M20.0919 29.7132C19.939 29.1421 19.0557 29.3785 19.2085 29.9497L19.5607 31.2656C19.6212 31.4913 19.8967 31.649 20.1207 31.5891C20.3646 31.5238 20.5094 31.2731 20.4442 31.0291L20.0919 29.7132Z" fill="white"/>
<path d="M18.7791 5.79769C19.003 5.85774 19.2786 5.6999 19.339 5.47427L19.5501 4.68552C19.703 4.11446 18.8196 3.87792 18.6668 4.44904L18.4556 5.23779C18.3903 5.48171 18.5351 5.73246 18.7791 5.79769Z" fill="white"/>
<path d="M19.4381 3.33321C19.662 3.39314 19.9376 3.23549 19.998 3.00974L20.545 0.96676C20.6978 0.395646 19.8144 0.159226 19.6616 0.730279L19.1147 2.77326C19.0494 3.01723 19.1942 3.26792 19.4381 3.33321Z" fill="white"/>
<path d="M5.86176 6.56121C6.27961 6.97949 6.9265 6.33308 6.50865 5.91487L5.20292 4.60804C4.78507 4.18976 4.13817 4.83617 4.55602 5.25438L5.86176 6.56121Z" fill="white"/>
<path d="M0.729426 12.4166L2.38821 12.8615C2.93926 13.0091 3.18995 12.1297 2.62511 11.9782L0.966334 11.5334C0.395341 11.3803 0.158434 12.2635 0.729426 12.4166Z" fill="white"/>
<path d="M5.56719 18.3619L4.76191 18.5778C4.19848 18.729 4.45264 19.6074 4.99882 19.4611L5.8041 19.2451C6.37509 19.092 6.13818 18.2091 5.56719 18.3619Z" fill="white"/>
<path d="M3.11299 19.0211L0.755745 19.6532C0.192251 19.8044 0.446473 20.6828 0.992653 20.5365L3.34996 19.9043C3.9209 19.7511 3.68417 18.8683 3.11299 19.0211Z" fill="white"/>
<path d="M8.70737 22.7081L6.58624 24.8312C6.16839 25.2494 6.81528 25.8958 7.23313 25.4776L9.35426 23.3545C9.77211 22.9362 9.12516 22.2899 8.70737 22.7081Z" fill="white"/>
<path d="M5.26628 26.152L4.63061 26.7883C4.21276 27.2064 4.85965 27.8529 5.2775 27.4346L5.91318 26.7983C6.33109 26.3801 5.68413 25.7338 5.26628 26.152Z" fill="white"/>
<path d="M13.082 27.0767C12.8381 27.0114 12.5874 27.1562 12.522 27.4001L12.367 27.9795C12.2183 28.5349 13.0957 28.7934 13.2503 28.216L13.4054 27.6366C13.4708 27.3927 13.326 27.142 13.082 27.0767Z" fill="white"/>
<path d="M12.4633 29.3901C12.2195 29.3249 11.9687 29.4696 11.9033 29.7136L11.5511 31.0295C11.4024 31.5849 12.2798 31.8434 12.4344 31.266L12.7867 29.9501C12.852 29.7061 12.7072 29.4555 12.4633 29.3901Z" fill="white"/>
<path d="M12.7689 4.12463C12.525 4.18993 12.3802 4.44061 12.4455 4.68453L12.6567 5.47329C12.8068 6.03446 13.6934 5.80975 13.54 5.23681L13.3288 4.44805C13.2634 4.20413 13.0126 4.0591 12.7689 4.12463Z" fill="white"/>
<path d="M11.9962 3.00928C12.1465 3.57039 13.0329 3.34574 12.8796 2.77279L12.3326 0.729817C12.1797 0.158703 11.2964 0.395184 11.4493 0.966298L11.9962 3.00928Z" fill="white"/>
</svg>
