<svg width="30" height="30" viewBox="0 0 30 30" fill="none" xmlns="http://www.w3.org/2000/svg">
<path d="M28.3538 20.7188V4.32597C28.3538 3.35806 27.5664 2.57064 26.5985 2.57064H22.426V1.99511C22.426 1.04309 21.6514 0.268555 20.6994 0.268555C19.7474 0.268555 18.9728 1.04309 18.9728 1.99511V2.57064H9.6494V1.99511C9.6494 1.04309 8.87488 0.268555 7.92285 0.268555C6.97082 0.268555 6.19629 1.04309 6.19629 1.99511V2.57064H2.02376C1.05591 2.57064 0.268421 3.35806 0.268421 4.32597V25.6778C0.268421 26.6457 1.05591 27.4331 2.02376 27.4331H9.8682C10.186 27.4331 10.4437 27.1755 10.4437 26.8576C10.4437 26.5397 10.186 26.2821 9.8682 26.2821H2.02376C1.69054 26.2821 1.41947 26.011 1.41947 25.6778V4.32597C1.41947 3.99275 1.69054 3.72168 2.02376 3.72168H6.19629V4.2972C6.19629 5.24923 6.97082 6.02376 7.92285 6.02376C8.87488 6.02376 9.6494 5.24923 9.6494 4.2972V3.72168H18.9728V4.2972C18.9728 5.24923 19.7474 6.02376 20.6994 6.02376C21.6514 6.02376 22.426 5.24923 22.426 4.2972V3.72168H26.5985C26.9317 3.72168 27.2028 3.99275 27.2028 4.32597V7.1748H5.44811C5.13031 7.1748 4.87259 7.43247 4.87259 7.75033C4.87259 8.06819 5.13031 8.32584 5.44811 8.32584H27.2028V19.7463C26.7128 19.4372 26.1701 19.2047 25.5913 19.0654V10.5128C25.5913 10.1949 25.3336 9.93732 25.0158 9.93732H3.60644C3.28864 9.93732 3.03092 10.1949 3.03092 10.5128V24.0951C3.03092 24.413 3.28864 24.6706 3.60644 24.6706H18.9266C18.9624 25.2355 19.085 25.7771 19.2817 26.2821H14.4723C14.1545 26.2821 13.8968 26.5397 13.8968 26.8576C13.8968 27.1755 14.1545 27.4331 14.4723 27.4331H19.8996C20.8795 28.8244 22.4979 29.7352 24.3252 29.7352C27.3082 29.7352 29.7351 27.3083 29.7351 24.3253C29.7351 22.9409 29.2122 21.6766 28.3538 20.7188ZM8.49837 4.2972C8.49837 4.61454 8.24019 4.87272 7.92285 4.87272C7.60551 4.87272 7.34733 4.61454 7.34733 4.2972V1.99511C7.34733 1.67777 7.60551 1.41959 7.92285 1.41959C8.24019 1.41959 8.49837 1.67777 8.49837 1.99511V4.2972ZM21.2749 4.2972C21.2749 4.61454 21.0168 4.87272 20.6994 4.87272C20.3821 4.87272 20.1239 4.61454 20.1239 4.2972V1.99511C20.1239 1.67777 20.3821 1.41959 20.6994 1.41959C21.0168 1.41959 21.2749 1.67777 21.2749 1.99511V4.2972ZM24.3252 18.9154C24.0576 18.9154 23.7946 18.9353 23.5373 18.973H21.3095V15.6349H24.4403V18.9168C24.402 18.916 24.3637 18.9154 24.3252 18.9154ZM18.9753 23.5196H17.0276V20.124H20.1584V20.8787C19.5447 21.6194 19.1244 22.5257 18.9753 23.5196ZM4.18197 15.6349H7.3128V18.973H4.18197V15.6349ZM8.46384 15.6349H11.5947V18.973H8.46384V15.6349ZM17.0276 15.6349H20.1584V18.973H17.0276V15.6349ZM15.8765 18.973H12.7457V15.6349H15.8765V18.973ZM17.0276 14.4839V11.0883H20.1584V14.4839H17.0276ZM15.8765 14.4839H12.7457V11.0883H15.8765V14.4839ZM11.5947 14.4839H8.46384V11.0883H11.5947V14.4839ZM11.5947 20.124V23.5196H8.46384V20.124H11.5947ZM12.7457 20.124H15.8765V23.5196H12.7457V20.124ZM24.4403 14.4839H21.3095V11.0883H24.4403V14.4839ZM7.3128 11.0883V14.4839H4.18197V11.0883H7.3128ZM4.18197 20.124H7.3128V23.5196H4.18197V20.124ZM24.3252 28.5842C21.9768 28.5842 20.0663 26.6737 20.0663 24.3253C20.0663 21.9769 21.9768 20.0664 24.3252 20.0664C26.6735 20.0664 28.584 21.9769 28.584 24.3253C28.584 26.6737 26.6735 28.5842 24.3252 28.5842Z" fill="white"/>
</svg>
