<svg width="26" height="26" viewBox="0 0 26 26" fill="none" xmlns="http://www.w3.org/2000/svg">
<path d="M24.2668 20.234L15.175 12.7378C15.4456 12.0758 15.313 11.291 14.7753 10.7532C14.6244 10.6023 14.4532 10.4838 14.2702 10.3969L15.0074 9.6597C15.8479 9.88298 16.7422 9.64828 17.3606 9.02986C18.3109 8.07937 18.3109 6.53285 17.3606 5.58237L13.0517 1.27366C12.101 0.321033 10.5566 0.319605 9.60467 1.27318C8.96959 1.90755 8.75988 2.81209 8.9753 3.62594L3.3412 9.26004C2.53164 9.04438 1.629 9.24766 0.986299 9.89155C0.035817 10.842 0.035817 12.3886 0.986299 13.339L5.29525 17.6482C6.24573 18.5985 7.79178 18.5985 8.74226 17.6482C9.20286 17.1876 9.45637 16.5754 9.45637 15.9244C9.45637 15.7082 9.42781 15.4964 9.37377 15.2929L10.1086 14.5583C10.1969 14.743 10.3171 14.9132 10.4661 15.0624C10.9984 15.5947 11.7772 15.7318 12.4383 15.4669L19.9633 24.5401C19.9755 24.5546 19.9881 24.5684 20.0014 24.5818C21.1916 25.7729 23.119 25.7739 24.3101 24.5822C25.5015 23.3916 25.5017 21.4642 24.3101 20.2733C24.2963 20.2595 24.2818 20.2464 24.2668 20.234ZM10.4666 2.13488C10.9358 1.66499 11.708 1.65285 12.1895 2.13511L16.4987 6.4443C16.9738 6.91942 16.9738 7.6928 16.4987 8.16816C16.0238 8.64281 15.2511 8.64305 14.7763 8.1684C14.7744 8.16673 14.7725 8.16507 14.7705 8.16316L10.4599 3.85207C10.4597 3.85207 10.4597 3.85184 10.4597 3.85184C9.99148 3.37671 9.99434 2.60666 10.4666 2.13488ZM7.88033 16.7863C7.40449 17.2624 6.63301 17.2624 6.15718 16.7863L1.84799 12.4773C1.37287 12.002 1.37287 11.2286 1.84847 10.753C2.32359 10.2772 3.09507 10.2769 3.57067 10.7528L7.88009 15.0622C7.88009 15.0624 7.88033 15.0624 7.88033 15.0627C8.35569 15.5378 8.35569 16.3112 7.88033 16.7863ZM8.74226 14.2007C8.74202 14.2005 8.74202 14.2005 8.74202 14.2003L4.43331 9.89155L9.60443 4.7202L10.4664 5.58213L9.17358 6.87491C8.93555 7.11294 8.93555 7.4988 9.17358 7.73684C9.41162 7.97488 9.79748 7.97488 10.0355 7.73684L11.3283 6.44406L13.9139 9.02962L12.2047 10.7387C12.1995 10.744 12.1936 10.7492 12.1895 10.7535L10.4664 12.4773L8.74226 14.2007ZM11.3281 14.2007C11.0898 13.9625 11.0895 13.5778 11.3278 13.3393H11.3281C11.3281 13.339 11.3281 13.339 11.3283 13.3388L13.0422 11.6245C13.0464 11.6204 13.051 11.6161 13.0555 11.6116C13.2928 11.3779 13.678 11.3795 13.9136 11.6152C14.1409 11.8423 14.1505 12.1996 13.9477 12.439C13.9338 12.4528 13.9208 12.4674 13.9084 12.4826L12.1895 14.2007C12.1833 14.2072 12.1767 14.2131 12.17 14.2188C12.1686 14.2203 12.1669 14.2217 12.1655 14.2231C11.9251 14.4397 11.557 14.43 11.3281 14.2007ZM23.4482 23.7203C22.7384 24.4306 21.596 24.4335 20.8822 23.7389L13.3985 14.7154L14.4197 13.6947L23.4675 21.1548C24.1628 21.8698 24.1575 23.0114 23.4482 23.7203Z" fill="white"/>
</svg>
